<svg width="180" height="180" viewBox="0 0 180 180" fill="none" xmlns="http://www.w3.org/2000/svg">
<path d="M179.6 94.2C179.1 105.2 176.6 115.6 172.5 125.2C158.8 157.2 126.9 179.7 89.9 179.7C40.3 179.7 0 139.4 0 89.8C0 40.3 40.3 0 89.8 0C95.9 0 101.8 0.6 107.6 1.8V34C102 32.2 96 31.2 89.8 31.2C57.5 31.2 31.1 57.5 31.1 89.9C31.1 122.2 57.4 148.6 89.8 148.6C108.9 148.6 125.9 139.4 136.6 125.3H107.6V94.3H179.6V94.2Z" fill="#E5E5E5"/>
<path d="M114.7 67L177 40.8C177.1 40.3 177.1 40.1 177.2 39.6L141.1 3.59998C140.6 3.69998 140.4 3.69998 139.9 3.79998L113.7 66.1C114.2 66.5 114.2 66.6 114.7 67Z" fill="#F5F5F5"/>
<path d="M90.1996 112.7C102.957 112.7 113.3 102.358 113.3 89.6C113.3 76.8422 102.957 66.5 90.1996 66.5C77.4418 66.5 67.0996 76.8422 67.0996 89.6C67.0996 102.358 77.4418 112.7 90.1996 112.7Z" fill="#F5F5F5"/>
</svg>
