<svg width="936" height="82" viewBox="0 0 936 82" fill="none" xmlns="http://www.w3.org/2000/svg">
<path fill-rule="evenodd" clip-rule="evenodd" d="M266.518 60.6837C269.961 64.9282 274.77 67.0504 280.943 67.0504C283.199 67.0504 285.158 66.7536 286.82 66.16C288.512 65.5663 289.937 64.7798 291.094 63.8003C292.252 62.7911 293.202 61.6781 293.944 60.4611C294.686 59.2442 295.265 57.9976 295.68 56.7213L297.149 66.16H306.588V0H293.543V26.3571C292.979 25.3776 292.252 24.4575 291.361 23.5968C290.471 22.736 289.432 21.9791 288.245 21.3261C287.058 20.6731 285.737 20.1685 284.282 19.8124C282.858 19.4265 281.314 19.2336 279.652 19.2336C275.705 19.2336 272.365 20.2131 269.635 22.172C266.904 24.1013 264.841 26.832 263.446 30.3641C262.051 33.8962 261.354 38.0665 261.354 42.8749C261.354 50.4733 263.075 56.4096 266.518 60.6837ZM291.094 54.2725C289.492 56.558 287.058 57.7007 283.793 57.7007C280.795 57.7007 278.42 56.4838 276.669 54.0499C274.918 51.616 274.042 47.8317 274.042 42.6968C274.042 37.6509 274.977 34.0595 276.847 31.9224C278.717 29.7557 281.062 28.6723 283.882 28.6723C286.048 28.6723 287.829 29.1917 289.224 30.2306C290.649 31.2397 291.718 32.7832 292.43 34.8609C293.142 36.9386 293.513 39.5505 293.543 42.6968C293.543 48.1285 292.727 51.9871 291.094 54.2725ZM596 66.16V0H608.911V26.7578C609.654 25.6893 610.588 24.6356 611.716 23.5968C612.844 22.5282 614.254 21.6378 615.946 20.9254C617.638 20.2131 619.701 19.8569 622.135 19.8569C625.073 19.8569 627.744 20.4357 630.149 21.5933C632.582 22.7212 634.527 24.3685 635.981 26.5352C637.465 28.702 638.207 31.3436 638.207 34.4602V66.16H625.162V36.3746C625.162 34.2969 624.405 32.709 622.891 31.6108C621.407 30.4829 619.597 29.9189 617.46 29.9189C616.065 29.9189 614.714 30.1712 613.408 30.6758C612.102 31.1804 611.034 31.9521 610.203 32.9909C609.401 34.0001 609 35.2616 609 36.7753V66.16H596ZM644.844 1.78092V66.16H657.933V17.1411L673.338 66.16H683.534L699.027 16.9185V66.16H712.161V1.78092H693.328L678.458 47.6833L663.721 1.78092H644.844ZM824.261 20.124V66.1599H811.839V20.124H824.261ZM824.394 1.82537V13.5347H811.75V1.82537H824.394ZM848.508 29.1621H858.748V20.0796H848.508V6.23315H839.247L835.997 20.1241H828.072V29.1621H835.552V54.2281C835.552 56.6916 835.982 58.8584 836.843 60.7283C837.704 62.5982 839.232 64.0526 841.429 65.0915C843.655 66.1303 846.786 66.6498 850.823 66.6498C853.079 66.6498 854.83 66.531 856.077 66.2936C857.353 66.0561 858.288 65.8038 858.882 65.5367V57.5227H852.693C851.743 57.5227 850.957 57.4485 850.333 57.3001C849.74 57.122 849.294 56.7658 848.998 56.2316C848.731 55.6676 848.597 54.8217 848.597 53.6938L848.508 29.1621ZM881.298 67.0505C876.787 67.0505 872.854 66.0858 869.5 64.1565C866.176 62.2272 863.593 59.4965 861.753 55.9644C859.942 52.4324 859.037 48.2473 859.037 43.4092C859.037 38.5711 859.942 34.3415 861.753 30.7204C863.593 27.0992 866.176 24.2795 869.5 22.2611C872.854 20.2428 876.801 19.2336 881.343 19.2336C885.884 19.2336 889.817 20.228 893.141 22.2166C896.465 24.1756 899.033 26.9657 900.843 30.5868C902.654 34.2079 903.559 38.4821 903.559 43.4092C903.559 48.0395 902.669 52.1355 900.888 55.6973C899.137 59.2294 896.599 62.0046 893.275 64.023C889.98 66.0413 885.988 67.0505 881.298 67.0505ZM881.343 57.3891C883.628 57.3891 885.468 56.7213 886.863 55.3857C888.258 54.05 889.268 52.2988 889.891 50.132C890.544 47.9356 890.87 45.5462 890.87 42.964C890.87 40.5301 890.574 38.2298 889.98 36.063C889.416 33.8963 888.437 32.1451 887.042 30.8094C885.646 29.4737 883.747 28.8059 881.343 28.8059C879.057 28.8059 877.202 29.4441 875.777 30.7204C874.382 31.967 873.358 33.6737 872.705 35.8404C872.052 37.9775 871.726 40.352 871.726 42.964C871.726 45.3682 872.023 47.6833 872.616 49.9094C873.21 52.1059 874.204 53.9016 875.599 55.2966C876.994 56.6916 878.909 57.3891 881.343 57.3891ZM906.881 66.16V20.1241H919.392V31.032C920.134 28.6872 921.172 26.6392 922.508 24.888C923.873 23.1071 925.521 21.7269 927.45 20.7474C929.379 19.7382 931.561 19.2336 933.995 19.2336C934.41 19.2336 934.796 19.2633 935.152 19.3227C935.538 19.3524 935.82 19.4117 935.998 19.5008V31.8779C935.731 31.7592 935.405 31.685 935.019 31.6553C934.663 31.6256 934.336 31.596 934.039 31.5663C931.487 31.3585 929.305 31.4327 927.495 31.7889C925.684 32.1451 924.215 32.7535 923.087 33.6143C921.959 34.4751 921.143 35.5288 920.638 36.7754C920.134 38.022 919.881 39.417 919.881 40.9605V66.16H906.881ZM763.729 20.1238V66.1598H776.729V36.6861C776.729 35.202 777.145 33.9554 777.976 32.9462C778.807 31.9371 779.875 31.1802 781.181 30.6756C782.517 30.171 783.897 29.9187 785.322 29.9187C787.459 29.9187 789.269 30.542 790.753 31.7887C792.238 33.0353 792.98 34.9052 792.98 37.3985V66.1598H805.98V35.7957C805.98 31.9964 805.223 28.9244 803.709 26.5796C802.196 24.205 800.207 22.4687 797.743 21.3705C795.31 20.2723 792.683 19.7231 789.863 19.7231C787.459 19.7231 785.381 20.0645 783.63 20.7472C781.879 21.4298 780.424 22.3054 779.267 23.374C778.139 24.4128 777.219 25.4962 776.506 26.6241V20.1238H763.729ZM738.146 67.0505C733.634 67.0505 729.701 66.0858 726.347 64.1565C723.023 62.2272 720.441 59.4965 718.601 55.9644C716.79 52.4324 715.885 48.2473 715.885 43.4092C715.885 38.5711 716.79 34.3415 718.601 30.7204C720.441 27.0992 723.023 24.2795 726.347 22.2611C729.701 20.2428 733.649 19.2336 738.19 19.2336C742.732 19.2336 746.664 20.228 749.989 22.2166C753.313 24.1756 755.881 26.9657 757.691 30.5868C759.502 34.2079 760.407 38.4821 760.407 43.4092C760.407 48.0395 759.517 52.1355 757.736 55.6973C755.984 59.2294 753.447 62.0046 750.122 64.023C746.828 66.0413 742.836 67.0505 738.146 67.0505ZM738.19 57.3891C740.476 57.3891 742.316 56.7213 743.711 55.3857C745.106 54.05 746.115 52.2988 746.739 50.132C747.392 47.9356 747.718 45.5462 747.718 42.964C747.718 40.5301 747.421 38.2298 746.828 36.063C746.264 33.8963 745.284 32.1451 743.889 30.8094C742.494 29.4737 740.595 28.8059 738.19 28.8059C735.905 28.8059 734.05 29.4441 732.625 30.7204C731.23 31.967 730.206 33.6737 729.553 35.8404C728.9 37.9775 728.574 40.352 728.574 42.964C728.574 45.3682 728.87 47.6833 729.464 49.9094C730.058 52.1059 731.052 53.9016 732.447 55.2966C733.842 56.6916 735.756 57.3891 738.19 57.3891ZM582.708 21.5934C579.918 20.0203 576.594 19.2337 572.735 19.2337C568.283 19.2337 564.38 20.2577 561.026 22.3057C557.701 24.3241 555.119 27.1438 553.279 30.7649C551.439 34.3861 550.518 38.5712 550.518 43.3202C550.518 48.2473 551.468 52.4918 553.368 56.0535C555.297 59.5856 557.939 62.3015 561.293 64.2011C564.647 66.1007 568.461 67.0505 572.735 67.0505C576.505 67.0505 579.784 66.3085 582.574 64.8244C585.394 63.3107 587.62 61.2775 589.253 58.7249C590.885 56.1426 591.805 53.2635 592.013 50.0876H581.461C581.283 51.1264 580.868 52.2543 580.215 53.4713C579.562 54.6585 578.642 55.6825 577.454 56.5433C576.297 57.404 574.842 57.8344 573.091 57.8344C569.797 57.8344 567.229 56.5284 565.389 53.9165C563.549 51.2748 562.628 47.7131 562.628 43.2312C562.628 38.4821 563.563 34.95 565.433 32.6349C567.333 30.29 569.797 29.1176 572.824 29.1176C574.605 29.1176 576.089 29.5183 577.276 30.3197C578.464 31.0914 579.384 32.0858 580.037 33.3027C580.69 34.49 581.12 35.6921 581.328 36.909H592.147C591.909 33.6144 590.974 30.6314 589.342 27.96C587.739 25.2887 585.528 23.1665 582.708 21.5934ZM518.43 46.1251C518.401 48.4699 518.772 50.5179 519.543 52.2692C520.315 53.9907 521.428 55.3264 522.883 56.2762C524.367 57.1963 526.148 57.6563 528.225 57.6563C530.451 57.6563 532.395 57.1814 534.058 56.2316C535.749 55.2818 536.922 53.7235 537.575 51.5568H549.284C548.78 54.8218 547.474 57.6118 545.366 59.927C543.289 62.2421 540.766 64.0082 537.797 65.2251C534.829 66.442 531.742 67.0505 528.537 67.0505C523.996 67.0505 519.989 66.1007 516.516 64.2011C513.073 62.2718 510.387 59.556 508.457 56.0535C506.528 52.5511 505.563 48.4254 505.563 43.6764C505.563 39.0758 506.439 34.9352 508.19 31.2547C509.941 27.5445 512.479 24.6209 515.804 22.4838C519.158 20.3171 523.179 19.2337 527.869 19.2337C532.559 19.2337 536.491 20.228 539.667 22.2167C542.873 24.1757 545.277 26.9212 546.88 30.4533C548.512 33.9557 549.329 38.0072 549.329 42.6078V46.1251H518.43ZM518.386 38.3782H537.174C537.174 36.538 536.833 34.8461 536.15 33.3027C535.467 31.7593 534.429 30.5423 533.034 29.6519C531.668 28.7614 529.947 28.3162 527.869 28.3162C525.851 28.3162 524.129 28.806 522.704 29.7855C521.309 30.7353 520.241 31.9819 519.499 33.5253C518.757 35.0688 518.386 36.6864 518.386 38.3782ZM474.277 52.2692C473.505 50.5179 473.134 48.4699 473.164 46.1251H504.062V42.6078C504.062 38.0072 503.246 33.9557 501.613 30.4533C500.01 26.9212 497.606 24.1757 494.401 22.2167C491.225 20.228 487.292 19.2337 482.602 19.2337C477.913 19.2337 473.891 20.3171 470.537 22.4838C467.212 24.6209 464.675 27.5445 462.924 31.2547C461.172 34.9352 460.297 39.0758 460.297 43.6764C460.297 48.4254 461.261 52.5511 463.191 56.0535C465.12 59.556 467.806 62.2718 471.249 64.2011C474.722 66.1007 478.729 67.0505 483.27 67.0505C486.476 67.0505 489.563 66.442 492.531 65.2251C495.499 64.0082 498.022 62.2421 500.1 59.927C502.207 57.6118 503.513 54.8218 504.017 51.5568H492.308C491.655 53.7235 490.483 55.2818 488.791 56.2316C487.129 57.1814 485.185 57.6563 482.958 57.6563C480.881 57.6563 479.1 57.1963 477.616 56.2762C476.161 55.3264 475.048 53.9907 474.277 52.2692ZM491.907 38.3782H473.119C473.119 36.6864 473.49 35.0688 474.232 33.5253C474.974 31.9819 476.043 30.7353 477.438 29.7855C478.862 28.806 480.584 28.3162 482.602 28.3162C484.68 28.3162 486.402 28.7614 487.767 29.6519C489.162 30.5423 490.201 31.7593 490.883 33.3027C491.566 34.8461 491.907 36.538 491.907 38.3782ZM414.081 80.4962V20.1241H427.126L427.171 26.7579C427.853 25.6597 428.684 24.6653 429.664 23.7749C430.673 22.8548 431.786 22.0534 433.003 21.3707C434.22 20.688 435.541 20.1686 436.965 19.8124C438.39 19.4266 439.889 19.2336 441.462 19.2336C444.876 19.2336 447.918 20.0796 450.589 21.7714C453.261 23.4336 455.353 26.0159 456.867 29.5183C458.41 32.991 459.182 37.4135 459.182 42.7859C459.182 48.366 458.351 52.9518 456.689 56.5432C455.056 60.105 452.801 62.7467 449.921 64.4682C447.042 66.1897 443.792 67.0505 440.171 67.0505C438.687 67.0505 437.292 66.8427 435.986 66.4272C434.68 66.0413 433.463 65.4922 432.335 64.7798C431.237 64.0675 430.243 63.2512 429.352 62.3311C428.491 61.3813 427.734 60.3573 427.082 59.2591V80.4962H414.081ZM437.055 57.5227C439.874 57.5227 442.234 56.3503 444.134 54.0055C446.063 51.6606 447.027 47.9504 447.027 42.8749C447.027 38.4227 446.107 34.95 444.267 32.4567C442.457 29.9338 440.052 28.6723 437.055 28.6723C433.701 28.6723 431.192 30.0377 429.53 32.7684C427.898 35.4694 427.082 38.8382 427.082 42.8749C427.082 45.4572 427.438 47.8614 428.15 50.0875C428.892 52.3136 429.99 54.1093 431.445 55.4747C432.929 56.84 434.799 57.5227 437.055 57.5227ZM374.157 65.8483C377.215 66.6497 380.331 67.0504 383.507 67.0504C388.701 67.0504 393.243 66.249 397.131 64.6462C401.019 63.0137 404.047 60.8173 406.213 58.0569C408.41 55.2669 409.508 52.1355 409.508 48.6628C409.508 47.0006 409.315 45.19 408.929 43.231C408.573 41.2424 407.801 39.2983 406.614 37.3986C405.457 35.499 403.705 33.7923 401.361 32.2786C399.045 30.7648 395.914 29.6221 391.966 28.8504L380.925 26.5798C377.511 25.8377 375.181 24.8879 373.935 23.7303C372.688 22.5728 372.065 21.059 372.065 19.1891C372.065 18.0018 372.332 16.9333 372.866 15.9835C373.401 15.0337 374.157 14.2174 375.137 13.5347C376.116 12.8224 377.304 12.2733 378.699 11.8874C380.123 11.5016 381.697 11.3086 383.418 11.3086C385.674 11.3086 387.677 11.6055 389.429 12.1991C391.209 12.7927 392.664 13.7574 393.792 15.093C394.92 16.4287 395.602 18.2244 395.84 20.4802H408.885C408.825 16.8591 407.801 13.5793 405.813 10.6408C403.854 7.67266 400.975 5.32783 397.175 3.6063C393.406 1.8551 388.746 0.979492 383.195 0.979492C378.535 0.979492 374.321 1.78089 370.551 3.38369C366.811 4.98649 363.843 7.27196 361.647 10.2401C359.48 13.1786 358.411 16.6661 358.441 20.7028C358.53 25.6299 359.999 29.5776 362.849 32.5457C365.698 35.4842 369.557 37.4135 374.425 38.3336L385.555 40.6042C387.633 41.0198 389.488 41.554 391.12 42.207C392.753 42.86 394.044 43.7059 394.994 44.7448C395.973 45.7836 396.463 47.1193 396.463 48.7518C396.463 50.5624 395.869 52.0761 394.682 53.2931C393.495 54.4803 391.922 55.3708 389.963 55.9644C388.004 56.558 385.837 56.8548 383.463 56.8548C381.147 56.8548 379.04 56.4987 377.14 55.7863C375.241 55.0739 373.668 54.0499 372.421 52.7143C371.174 51.3786 370.329 49.7313 369.883 47.7723H356.571C356.898 51.0076 357.877 53.8273 359.51 56.2315C361.172 58.6357 363.264 60.6392 365.787 62.242C368.31 63.8448 371.1 65.0469 374.157 65.8483ZM323.102 46.125C323.073 48.4699 323.444 50.5179 324.215 52.2691C324.987 53.9906 326.1 55.3263 327.555 56.2761C329.039 57.1962 330.819 57.6563 332.897 57.6563C335.123 57.6563 337.067 57.1814 338.73 56.2316C340.421 55.2818 341.594 53.7235 342.247 51.5567H353.956C353.452 54.8217 352.146 57.6118 350.038 59.9269C347.961 62.2421 345.438 64.0081 342.469 65.2251C339.501 66.442 336.414 67.0505 333.209 67.0505C328.668 67.0505 324.661 66.1007 321.188 64.201C317.745 62.2717 315.059 59.5559 313.129 56.0535C311.2 52.5511 310.235 48.4254 310.235 43.6763C310.235 39.0757 311.111 34.9351 312.862 31.2546C314.613 27.5444 317.151 24.6208 320.475 22.4838C323.829 20.317 327.851 19.2336 332.541 19.2336C337.231 19.2336 341.163 20.228 344.339 22.2166C347.545 24.1756 349.949 26.9211 351.552 30.4532C353.184 33.9556 354.001 38.0072 354.001 42.6078V46.125H323.102ZM323.058 38.3782H341.846C341.846 36.5379 341.505 34.8461 340.822 33.3026C340.139 31.7592 339.101 30.5423 337.706 29.6518C336.34 28.7614 334.619 28.3162 332.541 28.3162C330.523 28.3162 328.801 28.8059 327.376 29.7854C325.981 30.7352 324.913 31.9818 324.171 33.5253C323.429 35.0687 323.058 36.6863 323.058 38.3782ZM257.409 20.124V66.1599H244.987V20.124H257.409ZM257.543 1.82537V13.5347H244.898V1.82537H257.543ZM231.272 21.5933C228.482 20.0202 225.157 19.2336 221.299 19.2336C216.846 19.2336 212.943 20.2577 209.589 22.3057C206.265 24.324 203.683 27.1437 201.842 30.7649C200.002 34.386 199.082 38.5711 199.082 43.3201C199.082 48.2473 200.032 52.4917 201.931 56.0535C203.861 59.5856 206.502 62.3014 209.856 64.201C213.21 66.1007 217.024 67.0505 221.299 67.0505C225.068 67.0505 228.348 66.3084 231.138 64.8244C233.958 63.3106 236.184 61.2774 237.816 58.7248C239.449 56.1425 240.369 53.2634 240.577 50.0875H230.025C229.847 51.1264 229.431 52.2543 228.778 53.4712C228.125 54.6585 227.205 55.6825 226.018 56.5432C224.86 57.404 223.406 57.8344 221.655 57.8344C218.36 57.8344 215.793 56.5284 213.952 53.9164C212.112 51.2748 211.192 47.713 211.192 43.2311C211.192 38.4821 212.127 34.95 213.997 32.6348C215.897 30.29 218.36 29.1176 221.388 29.1176C223.169 29.1176 224.653 29.5183 225.84 30.3197C227.027 31.0914 227.947 32.0857 228.6 33.3026C229.253 34.4899 229.684 35.692 229.891 36.9089H240.71C240.473 33.6143 239.538 30.6313 237.905 27.96C236.303 25.2887 234.091 23.1664 231.272 21.5933ZM175.989 67.0505C171.477 67.0505 167.544 66.0858 164.19 64.1565C160.866 62.2272 158.284 59.4965 156.443 55.9644C154.633 52.4324 153.728 48.2473 153.728 43.4092C153.728 38.5711 154.633 34.3415 156.443 30.7204C158.284 27.0992 160.866 24.2795 164.19 22.2611C167.544 20.2428 171.492 19.2336 176.033 19.2336C180.574 19.2336 184.507 20.228 187.832 22.2166C191.156 24.1756 193.723 26.9657 195.534 30.5868C197.344 34.2079 198.25 38.4821 198.25 43.4092C198.25 48.0395 197.359 52.1355 195.578 55.6973C193.827 59.2294 191.289 62.0046 187.965 64.023C184.67 66.0413 180.678 67.0505 175.989 67.0505ZM176.033 57.3891C178.319 57.3891 180.159 56.7213 181.554 55.3857C182.949 54.05 183.958 52.2988 184.581 50.132C185.234 47.9356 185.561 45.5462 185.561 42.964C185.561 40.5301 185.264 38.2298 184.67 36.063C184.107 33.8963 183.127 32.1451 181.732 30.8094C180.337 29.4737 178.437 28.8059 176.033 28.8059C173.748 28.8059 171.893 29.4441 170.468 30.7204C169.073 31.967 168.049 33.6737 167.396 35.8404C166.743 37.9775 166.416 40.352 166.416 42.964C166.416 45.3682 166.713 47.6833 167.307 49.9094C167.9 52.1059 168.895 53.9016 170.29 55.2966C171.685 56.6916 173.599 57.3891 176.033 57.3891ZM108.78 20.1238V66.1598H121.781V36.6861C121.781 35.202 122.196 33.9554 123.027 32.9462C123.858 31.9371 124.927 31.1802 126.233 30.6756C127.569 30.171 128.949 29.9187 130.374 29.9187C132.511 29.9187 134.321 30.542 135.805 31.7887C137.289 33.0353 138.031 34.9052 138.031 37.3985V66.1598H151.032V35.7957C151.032 31.9964 150.275 28.9244 148.761 26.5796C147.247 24.205 145.259 22.4687 142.795 21.3705C140.361 20.2723 137.735 19.7231 134.915 19.7231C132.511 19.7231 130.433 20.0645 128.682 20.7472C126.93 21.4298 125.476 22.3054 124.319 23.374C123.191 24.4128 122.27 25.4962 121.558 26.6241V20.1238H108.78ZM74.1989 46.125C74.1693 48.4699 74.5403 50.5179 75.312 52.2691C76.0837 53.9906 77.1968 55.3263 78.6512 56.2761C80.1352 57.1962 81.9161 57.6563 83.9938 57.6563C86.2199 57.6563 88.1641 57.1814 89.8262 56.2316C91.5181 55.2818 92.6905 53.7235 93.3435 51.5567H105.053C104.548 54.8217 103.242 57.6118 101.135 59.9269C99.0572 62.2421 96.5342 64.0081 93.5661 65.2251C90.5979 66.442 87.5111 67.0505 84.3055 67.0505C79.7642 67.0505 75.7572 66.1007 72.2845 64.201C68.8414 62.2717 66.1553 59.5559 64.226 56.0535C62.2967 52.5511 61.332 48.4254 61.332 43.6763C61.332 39.0757 62.2076 34.9351 63.9588 31.2546C65.7101 27.5444 68.2478 24.6208 71.5721 22.4838C74.9261 20.317 78.948 19.2336 83.6376 19.2336C88.3273 19.2336 92.2601 20.228 95.436 22.2166C98.6416 24.1756 101.046 26.9211 102.649 30.4532C104.281 33.9556 105.097 38.0072 105.097 42.6078V46.125H74.1989ZM74.1544 38.3782H92.9428C92.9428 36.5379 92.6014 34.8461 91.9188 33.3026C91.2361 31.7592 90.1972 30.5423 88.8022 29.6518C87.4369 28.7614 85.7153 28.3162 83.6376 28.3162C81.6193 28.3162 79.8978 28.8059 78.4731 29.7854C77.078 30.7352 76.0095 31.9818 75.2675 33.5253C74.5254 35.0687 74.1544 36.6863 74.1544 38.3782ZM13.5793 63.0435C17.9424 65.7149 23.0773 67.0505 28.9839 67.0505C32.4567 67.0505 35.3803 66.5905 37.7548 65.6703C40.159 64.7205 42.1625 63.5333 43.7653 62.1086C45.3978 60.6542 46.7631 59.1998 47.8613 57.7454V66.1601H56.7213V32.5458L29.7853 32.4123V41.4058H43.0975L42.6077 45.3237C42.4296 46.4813 42.0289 47.6686 41.4056 48.8855C40.7823 50.0728 39.9364 51.171 38.8679 52.1801C37.7993 53.1893 36.5082 54.0204 34.9944 54.6734C33.5104 55.2967 31.8185 55.6083 29.9189 55.6083C27.9302 55.6083 25.9861 55.267 24.0865 54.5843C22.1869 53.9017 20.495 52.7441 19.011 51.1116C17.5269 49.4494 16.3396 47.2085 15.4492 44.3888C14.5884 41.569 14.1581 38.0369 14.1581 33.7925C14.1581 28.5389 14.8259 24.3092 16.1616 21.1036C17.4972 17.8981 19.3226 15.5681 21.6378 14.1137C23.9529 12.6296 26.5352 11.8876 29.3846 11.8876C31.7592 11.8876 33.8369 12.407 35.6177 13.4458C37.3986 14.455 38.853 15.8055 39.9809 17.4974C41.1385 19.1892 41.9102 21.0591 42.2961 23.1071H56.0089C55.8902 20.2577 55.163 17.5122 53.8273 14.8705C52.5213 12.1992 50.6959 9.80985 48.3511 7.70247C46.0359 5.59509 43.3052 3.93293 40.159 2.71599C37.0128 1.49905 33.5252 0.89058 29.6963 0.89058C23.76 0.89058 18.5658 2.24109 14.1135 4.9421C9.66131 7.64311 6.18858 11.4869 3.69534 16.4733C1.23178 21.4301 0 27.3219 0 34.1487C0 40.8567 1.17242 46.6742 3.51725 51.6013C5.89177 56.5285 9.24578 60.3425 13.5793 63.0435Z" fill="#A3A3A3"/>
</svg>
