<svg xmlns="http://www.w3.org/2000/svg" width="96" height="64" viewBox="0 0 96 64" fill="none">
<path fill-rule="evenodd" clip-rule="evenodd" d="M2.14038 12.9137C3.30702 13.1332 4.47163 13.3178 5.6334 13.502H5.6334C7.75551 13.8383 9.86817 14.1732 11.9666 14.7165C16.231 15.8208 20.175 17.921 22.5657 21.8684C23.3605 23.1809 23.8017 25.1553 23.7586 26.8721L30.9881 13.1725C30.9854 13.126 30.9841 13.0647 30.9824 12.9897V12.9896V12.9896V12.9895V12.9894V12.9893V12.9893V12.9892V12.9892V12.9891C30.9522 11.6 30.8201 5.53062 20.0551 2.48896C16.4202 1.4619 12.6928 0.664911 8.95512 0L2.14038 12.9137ZM16.9834 51.3768C17.2071 51.7862 17.4028 52.2172 17.5789 52.6621L23.8018 40.8697C22.3994 37.0651 18.5248 35.3471 15.0782 33.8189L14.919 33.7482C11.2008 32.0987 8.15308 30.1065 7.11743 25.9445C6.47744 23.3721 6.79137 20.7723 7.10583 18.168L7.10585 18.1678L7.10587 18.1677L7.10589 18.1675L7.10591 18.1673L7.10593 18.1672L7.10595 18.167L7.10597 18.1669L7.10598 18.1667L7.106 18.1666L7.10602 18.1664L7.10604 18.1663L7.10606 18.1661L7.10608 18.166L7.1061 18.1658L7.10611 18.1656C7.13642 17.9147 7.16673 17.6637 7.19618 17.4127L0.134247 30.8725C-0.127777 33.3635 0.037851 34.715 0.255777 36.2715C0.858317 40.5739 4.326 43.1221 7.97917 44.7925C8.2128 44.8994 8.44655 45.0054 8.67994 45.1112L8.68923 45.1154L8.69012 45.1158L8.69102 45.1162L8.69192 45.1166C11.9646 46.6003 15.1663 48.0519 16.9834 51.3768ZM33.5999 41.0847H31.9553V49.6026H33.5999V45.8675H36.4433V49.6026H38.082V41.0847H36.4433V44.2984H33.5999V41.0847ZM42.9576 44.6283C42.4663 44.6283 42.0574 44.7995 41.7305 45.1409C41.404 45.4826 41.2405 45.92 41.2405 46.4524C41.2405 47.0008 41.402 47.4446 41.7251 47.7842C42.0477 48.124 42.4566 48.294 42.9515 48.294C43.4466 48.294 43.8584 48.1222 44.1871 47.7785C44.5157 47.4349 44.68 46.9928 44.68 46.4524C44.68 45.9118 44.5186 45.4731 44.1959 45.1352C43.8729 44.7974 43.4601 44.6283 42.9576 44.6283ZM42.9314 43.1402C43.5258 43.1402 44.0844 43.2888 44.6078 43.5861C45.1309 43.8835 45.5391 44.2867 45.8324 44.7963C46.1259 45.3058 46.2724 45.8558 46.2724 46.4469C46.2724 47.0412 46.125 47.5972 45.8294 48.1143C45.5344 48.6317 45.1318 49.0361 44.6222 49.3274C44.1126 49.6189 43.5509 49.7647 42.9372 49.7647C42.0339 49.7647 41.2627 49.4432 40.6239 48.8006C39.9848 48.158 39.6655 47.3771 39.6655 46.4582C39.6655 45.4739 40.0263 44.6534 40.7484 43.9972C41.3812 43.426 42.1091 43.1402 42.9314 43.1402ZM49.0894 40.8702H47.5085V49.6026H49.0894V40.8702ZM53.6292 44.6283C53.1379 44.6283 52.729 44.7995 52.4023 45.1409C52.0756 45.4826 51.9122 45.92 51.9122 46.4524C51.9122 47.0008 52.0736 47.4446 52.3967 47.7842C52.7193 48.124 53.1282 48.294 53.6231 48.294C54.1182 48.294 54.53 48.1222 54.859 47.7785C55.1873 47.4349 55.3519 46.9928 55.3519 46.4524C55.3519 45.9118 55.1902 45.4731 54.8676 45.1352C54.5445 44.7974 54.1318 44.6283 53.6292 44.6283ZM53.603 43.1402C54.1973 43.1402 54.7563 43.2888 55.2794 43.5861C55.8025 43.8835 56.2107 44.2867 56.5042 44.7963C56.7975 45.3058 56.944 45.8558 56.944 46.4469C56.944 47.0412 56.7966 47.5972 56.5011 48.1143C56.206 48.6317 55.8036 49.0361 55.2938 49.3274C54.7843 49.6189 54.2225 49.7647 53.6089 49.7647C52.7055 49.7647 51.9343 49.4432 51.2956 48.8006C50.6564 48.158 50.3372 47.3771 50.3372 46.4582C50.3372 45.4739 50.6979 44.6534 51.42 43.9972C52.0528 43.426 52.7807 43.1402 53.603 43.1402ZM60.1247 45.1177C60.448 44.7724 60.8539 44.5994 61.3425 44.5994C61.8428 44.5994 62.2565 44.7694 62.5834 45.1092C62.9101 45.4487 63.0738 45.8926 63.0738 46.4411C63.0738 47.0008 62.9101 47.4534 62.5834 47.7988C62.2565 48.1443 61.8444 48.317 61.3482 48.317C60.867 48.317 60.4622 48.1414 60.1333 47.7903C59.8043 47.439 59.6399 46.9912 59.6399 46.4469C59.6399 45.9065 59.8016 45.4635 60.1247 45.1177ZM64.5853 40.8702H63.0042V43.9972C62.7227 43.7114 62.4163 43.4972 62.0846 43.3542C61.7528 43.2115 61.3983 43.1402 61.0203 43.1402C60.199 43.1402 59.5011 43.4511 58.9267 44.0726C58.3521 44.6942 58.0647 45.4912 58.0647 46.4641C58.0647 47.4022 58.3618 48.187 58.9556 48.8178C59.5492 49.449 60.2531 49.7647 61.0666 49.7647C61.4292 49.7647 61.7656 49.7001 62.0761 49.5706C62.3863 49.4416 62.6956 49.23 63.0042 48.9368V49.6026H64.5853V40.8702ZM69.2874 44.6283C68.7961 44.6283 68.387 44.7995 68.0601 45.1409C67.7336 45.4826 67.5706 45.92 67.5706 46.4524C67.5706 47.0008 67.732 47.4446 68.0549 47.7842C68.3777 48.124 68.7859 48.294 69.2815 48.294C69.776 48.294 70.1885 48.1222 70.5167 47.7785C70.8455 47.4349 71.0103 46.9928 71.0103 46.4524C71.0103 45.9118 70.8486 45.4731 70.526 45.1352C70.2029 44.7974 69.7895 44.6283 69.2874 44.6283ZM69.2612 43.1402C69.8554 43.1402 70.4142 43.2888 70.9376 43.5861C71.4607 43.8835 71.8691 44.2867 72.1624 44.7963C72.4557 45.3058 72.602 45.8558 72.602 46.4469C72.602 47.0412 72.4548 47.5972 72.159 48.1143C71.8639 48.6317 71.4616 49.0361 70.9518 49.3274C70.442 49.6189 69.8807 49.7647 69.2671 49.7647C68.3633 49.7647 67.5923 49.4432 66.9535 48.8006C66.3144 48.158 65.9951 47.3771 65.9951 46.4582C65.9951 45.4739 66.3561 44.6534 67.0779 43.9972C67.7108 43.426 68.4385 43.1402 69.2612 43.1402ZM75.5811 43.3025H74.0002V49.6026H75.5811V46.7998C75.5811 46.1938 75.6344 45.7499 75.7407 45.4682C75.8473 45.1864 76.0076 44.9672 76.2228 44.8107C76.4373 44.6545 76.6764 44.5764 76.9396 44.5764C77.1756 44.5764 77.3765 44.6382 77.5431 44.7617C77.7093 44.8852 77.8344 45.0735 77.9177 45.3261C78.0005 45.5793 78.0423 45.9872 78.0423 46.5508V49.6026H79.6345V46.7594C79.6345 46.157 79.6871 45.7199 79.7909 45.4478C79.8955 45.1758 80.0549 44.9624 80.2687 44.808C80.4827 44.6534 80.725 44.5764 80.9957 44.5764C81.3506 44.5764 81.617 44.7028 81.7945 44.9556C81.9719 45.2086 82.0611 45.6921 82.0611 46.4063V49.6026H83.6533V45.9082C83.6533 45.1516 83.579 44.6052 83.4302 44.2696C83.2814 43.9336 83.0372 43.6615 82.6974 43.4529C82.3571 43.2445 81.9631 43.1402 81.515 43.1402C81.0826 43.1402 80.6837 43.2368 80.3186 43.4299C79.9531 43.6229 79.6451 43.9044 79.394 44.2752C79.2008 43.9044 78.9459 43.6229 78.6293 43.4299C78.3123 43.2368 77.957 43.1402 77.563 43.1402C77.1728 43.1402 76.8123 43.2135 76.4822 43.3603C76.1519 43.507 75.8514 43.7288 75.5811 44.0263V43.3025ZM88.2627 44.6283C87.7714 44.6283 87.3623 44.7995 87.0356 45.1409C86.7089 45.4826 86.5459 45.92 86.5459 46.4524C86.5459 47.0008 86.7071 47.4446 87.03 47.7842C87.3531 48.124 87.7617 48.294 88.2569 48.294C88.7518 48.294 89.1638 48.1222 89.4921 47.7785C89.821 47.4349 89.9854 46.9928 89.9854 46.4524C89.9854 45.9118 89.824 45.4731 89.5011 45.1352C89.1782 44.7974 88.7653 44.6283 88.2627 44.6283ZM88.2365 43.1402C88.8312 43.1402 89.3898 43.2888 89.9129 43.5861C90.436 43.8835 90.8445 44.2867 91.1378 44.7963C91.431 45.3058 91.5778 45.8558 91.5778 46.4469C91.5778 47.0412 91.4301 47.5972 91.1348 48.1143C90.8393 48.6317 90.437 49.0361 89.9276 49.3274C89.4178 49.6189 88.8561 49.7647 88.2424 49.7647C87.3391 49.7647 86.5676 49.4432 85.9291 48.8006C85.2899 48.158 84.9705 47.3771 84.9705 46.4582C84.9705 45.4739 85.3315 44.6534 86.0533 43.9972C86.6866 43.426 87.4143 43.1402 88.2365 43.1402ZM93.9725 43.3025H92.6174V49.6026H94.1863V47.0547L94.1809 46.7479C94.1809 45.8675 94.2647 45.2769 94.4329 44.9757C94.6006 44.6748 94.8061 44.5242 95.0497 44.5242C95.1692 44.5242 95.3218 44.5705 95.5069 44.6633L95.9993 43.3025C95.7754 43.1944 95.5609 43.1402 95.3563 43.1402C95.0669 43.1402 94.8005 43.2212 94.5571 43.3834C94.3141 43.5457 94.1193 43.783 93.9725 44.0957V43.3025ZM32.7875 53.636H34.3673L36.3417 59.5774L38.3344 53.636H39.9132L41.3419 62.1543H39.7739L38.8606 56.7746L37.0511 62.1543H35.6221L33.8285 56.7746L32.8934 62.1543H31.3125L32.7875 53.636ZM44.2299 55.8545H42.6318V58.4776C42.6318 59.4855 42.6935 60.1802 42.8172 60.5621C42.991 61.1141 43.2911 61.5447 43.7174 61.8535C44.1439 62.1622 44.7031 62.3169 45.394 62.3169C46.0309 62.3169 46.5561 62.1845 46.969 61.9202C47.3822 61.6558 47.6946 61.2765 47.9071 60.7823C48.0807 60.377 48.1676 59.624 48.1676 58.5239V55.8545H46.5868V58.9406C46.5868 59.5353 46.5538 59.9234 46.4881 60.1048C46.3991 60.3479 46.2625 60.5323 46.079 60.6576C45.8952 60.7834 45.6715 60.8462 45.4084 60.8462C45.1454 60.8462 44.9237 60.7823 44.7437 60.6547C44.5638 60.5276 44.4331 60.3491 44.3518 60.1192C44.2705 59.8896 44.2299 59.4793 44.2299 58.8887V55.8545ZM53.7888 56.7346L52.8099 57.7131C52.4123 57.3196 52.0515 57.1225 51.7271 57.1225C51.5496 57.1225 51.4105 57.1604 51.3101 57.2355C51.2096 57.3108 51.1597 57.4044 51.1597 57.5165C51.1597 57.6013 51.1915 57.6797 51.2552 57.7508C51.3191 57.8224 51.4762 57.9199 51.7271 58.0434L52.3062 58.3329C52.916 58.634 53.335 58.9406 53.5628 59.2535C53.7904 59.5663 53.9044 59.9331 53.9044 60.3537C53.9044 60.9135 53.6988 61.3808 53.2879 61.755C52.8765 62.1295 52.3254 62.3169 51.6345 62.3169C50.7156 62.3169 49.982 61.9577 49.4341 61.2397L50.407 60.1802C50.5921 60.3964 50.8093 60.5709 51.0581 60.7039C51.3073 60.8371 51.5282 60.904 51.7214 60.904C51.9298 60.904 52.0978 60.8536 52.2251 60.7534C52.3525 60.6527 52.4164 60.5371 52.4164 60.4059C52.4164 60.1628 52.1865 59.9252 51.7271 59.6936L51.1942 59.4274C50.1753 58.9138 49.6657 58.2712 49.6657 57.4988C49.6657 57.001 49.8576 56.5754 50.2417 56.222C50.6257 55.8687 51.1172 55.6924 51.7155 55.6924C52.1247 55.6924 52.5096 55.7818 52.8708 55.9615C53.2316 56.141 53.5376 56.3986 53.7888 56.7346ZM59.4405 57.36C59.748 57.5801 59.9539 57.8657 60.0582 58.2168H56.6303C56.8082 57.8271 57.0014 57.5548 57.2103 57.4007C57.5429 57.1534 57.9296 57.0299 58.3703 57.0299C58.7765 57.0299 59.1332 57.14 59.4405 57.36ZM56.5607 59.4619H61.6391L61.6452 59.1607C61.6452 58.1186 61.3343 57.2798 60.7128 56.6449C60.0912 56.0098 59.2843 55.6924 58.2922 55.6924C57.3577 55.6924 56.581 56.0098 55.9615 56.6449C55.342 57.2798 55.0322 58.078 55.0322 59.0393C55.0322 59.9774 55.3427 60.7581 55.9642 61.3815C56.5858 62.0051 57.3909 62.3169 58.3791 62.3169C59.016 62.3169 59.5663 62.204 60.0293 61.978C60.4926 61.7525 60.8902 61.4039 61.2223 60.9329L59.8902 60.3073C59.4656 60.7204 58.958 60.927 58.3674 60.927C57.8734 60.927 57.4672 60.795 57.1484 60.5303C56.8301 60.266 56.6339 59.9097 56.5607 59.4619ZM63.0911 55.8545H64.6891V58.8887C64.6891 59.4793 64.7298 59.8896 64.811 60.1192C64.8921 60.3491 65.023 60.5276 65.2028 60.6547C65.3827 60.7823 65.6046 60.8462 65.8677 60.8462C66.1307 60.8462 66.3542 60.7834 66.538 60.6576C66.7218 60.5323 66.8581 60.3479 66.9473 60.1048C67.013 59.9234 67.046 59.5353 67.046 58.9406V55.8545H68.6269V58.5239C68.6269 59.624 68.5399 60.377 68.3666 60.7823C68.1536 61.2765 67.8409 61.6558 67.4285 61.9202C67.0153 62.1845 66.4903 62.3169 65.8532 62.3169C65.1621 62.3169 64.6031 62.1622 64.1766 61.8535C63.7501 61.5447 63.4501 61.1141 63.2762 60.5621C63.1527 60.1802 63.0911 59.4855 63.0911 58.4776V55.8545ZM71.9603 55.8541H70.3794V62.1543H71.9603V59.3516C71.9603 58.7456 72.0136 58.3015 72.1201 58.0195C72.2267 57.7378 72.3868 57.5188 72.6019 57.3622C72.8166 57.2063 73.0555 57.1279 73.319 57.1279C73.5547 57.1279 73.7559 57.1898 73.9223 57.3133C74.0884 57.4368 74.2138 57.625 74.2971 57.8777C74.3797 58.1308 74.4215 58.5388 74.4215 59.1026V62.1543H76.0139V59.3111C76.0139 58.7088 76.0662 58.2717 76.1703 57.9994C76.2744 57.7273 76.434 57.514 76.6478 57.3596C76.8621 57.2052 77.1044 57.1279 77.3748 57.1279C77.73 57.1279 77.9962 57.2544 78.1739 57.5075C78.3513 57.7601 78.4403 58.2437 78.4403 58.9578V62.1543H80.0327V58.46C80.0327 57.7032 79.9582 57.1568 79.8096 56.8211C79.6608 56.4849 79.4163 56.2131 79.0765 56.0047C78.7363 55.7963 78.3425 55.692 77.8944 55.692C77.4618 55.692 77.063 55.7884 76.6975 55.9815C76.3324 56.1743 76.0245 56.4562 75.7734 56.8267C75.5801 56.4562 75.3252 56.1743 75.0087 55.9815C74.6917 55.7884 74.3361 55.692 73.9421 55.692C73.5522 55.692 73.1914 55.7654 72.8614 55.9119C72.5313 56.0586 72.2308 56.2803 71.9603 56.5779V55.8541Z" fill="black"/>
</svg>
