<svg xmlns="http://www.w3.org/2000/svg" width="96" height="36" viewBox="0 0 96 36" fill="none">
<path fill-rule="evenodd" clip-rule="evenodd" d="M16.5597 0H13.6506V15.181H16.5597V9.7114L20.5877 15.181H24.1681L19.6926 9.48815L23.4968 4.24176H20.1401L16.5597 9.7114V0ZM3.13287 4.24185H0V11.1626C0.0447552 16.342 6.08671 15.65 7.54126 14.1765C7.67553 14.0202 7.78741 13.9756 7.94405 13.9533C8.14545 13.9756 8.25734 14.4891 8.27972 15.1811H10.7413V4.24185H7.83217V10.2696C7.83217 12.7254 3.13287 13.1272 3.13287 11.1626V4.24185ZM25.7341 4.24182H28.1957L28.5314 5.58133C29.6055 4.71065 30.2992 4.28647 31.9999 4.01857V7.14408C30.702 7.09943 28.7775 7.38966 28.7551 10.0463V15.1811H25.7341V4.24182ZM44.7553 4.2417H42.2938L41.7343 5.58121C41.0239 4.79584 40.1266 4.26674 39.1544 4.05991C38.1823 3.85309 37.1783 3.9777 36.2678 4.41819C35.3572 4.85869 34.5805 5.59557 34.0344 6.53688C33.4883 7.4782 33.1971 8.58227 33.1971 9.71134C33.1971 10.8404 33.4883 11.9445 34.0344 12.8858C34.5805 13.8271 35.3572 14.564 36.2678 15.0045C37.1783 15.445 38.1823 15.5696 39.1544 15.3628C40.1266 15.1559 41.0239 14.6268 41.7343 13.8415L42.2938 15.181H44.7553V4.2417ZM37.0383 7.817C37.5419 7.31459 38.2249 7.03234 38.9371 7.03234C39.6493 7.03234 40.3323 7.31459 40.8359 7.817C41.3395 8.31941 41.6224 9.00083 41.6224 9.71134C41.6224 10.4219 41.3395 11.1033 40.8359 11.6057C40.3323 12.1081 39.6493 12.3904 38.9371 12.3904C38.2249 12.3904 37.5419 12.1081 37.0383 11.6057C36.5347 11.1033 36.2518 10.4219 36.2518 9.71134C36.2518 9.00083 36.5347 8.31941 37.0383 7.817ZM47.4409 0.33469H50.5738V2.90207H47.4409V0.33469ZM47.4409 4.24158H50.5738V15.1809H47.4409V4.24158ZM60.8676 15.1806H64.0005V8.25988C63.9557 3.08046 57.9137 3.77254 56.4592 5.246C56.3249 5.40227 56.213 5.44692 56.0564 5.46925C55.855 5.44692 55.7431 4.93344 55.7207 4.24137H53.2592V15.1806H56.1683V9.15288C56.1683 6.69712 60.8676 6.29527 60.8676 8.25988V15.1806ZM66.2381 0.33469H69.3709V2.90207H66.2381V0.33469ZM66.2381 4.24158H69.3709V15.1809H66.2381V4.24158ZM82.7974 4.2417H80.3358L79.7764 5.58121C79.0659 4.79584 78.1686 4.26674 77.1965 4.05991C76.2243 3.85309 75.2203 3.9777 74.3098 4.41819C73.3993 4.85869 72.6225 5.59557 72.0765 6.53688C71.5304 7.4782 71.2392 8.58227 71.2392 9.71134C71.2392 10.8404 71.5304 11.9445 72.0765 12.8858C72.6225 13.8271 73.3993 14.564 74.3098 15.0045C75.2203 15.445 76.2243 15.5696 77.1965 15.3628C78.1686 15.1559 79.0659 14.6268 79.7764 13.8415L80.3358 15.181H82.7974V4.2417ZM75.0804 7.817C75.584 7.31459 76.267 7.03234 76.9792 7.03234C77.6914 7.03234 78.3744 7.31459 78.878 7.817C79.3816 8.31941 79.6645 9.00083 79.6645 9.71134C79.6645 10.4219 79.3816 11.1033 78.878 11.6057C78.3744 12.1081 77.6914 12.3904 76.9792 12.3904C76.267 12.3904 75.584 12.1081 75.0804 11.6057C74.5768 11.1033 74.2939 10.4219 74.2939 9.71134C74.2939 9.00083 74.5768 8.31941 75.0804 7.817ZM96 15.181H92.8671V8.26021C92.8671 6.2956 88.1678 6.69745 88.1678 9.15321V15.181H85.2587V4.24169H87.7203C87.7427 4.93377 87.8545 5.44725 88.0559 5.46957C88.2126 5.44725 88.3245 5.4026 88.4587 5.24632C89.9133 3.77287 95.9552 3.08079 96 8.26021V15.181ZM3.3569 18.8646H0.224035V21.432H3.3569V18.8646ZM3.3569 22.7715H0.224035V33.7108H3.3569V22.7715ZM16.7833 33.7106H13.6505V26.7898C13.6505 24.8252 8.95115 25.2271 8.95115 27.6828V33.7106H6.04206V22.7713H8.5036C8.52598 23.4634 8.63787 23.9769 8.83926 23.9992C8.99591 23.9769 9.10779 23.9322 9.24206 23.7759C10.6966 22.3025 16.7386 21.6104 16.7833 26.7898V33.7106ZM27.0769 26.1203V23.5529C23.8769 21.3204 19.021 23.3073 19.021 26.031C19.0072 28.5958 21.2908 29.1046 23.0593 29.4987C24.1694 29.746 25.0767 29.9482 25.0853 30.5853C25.0853 31.5676 21.2811 31.6569 19.1329 30.1388V32.8178C21.6392 34.3359 28.2853 34.5592 28.2853 30.6076C28.2719 28.2218 26.1048 27.7029 24.3701 27.2876C23.2154 27.0111 22.2523 26.7805 22.2434 26.0756C22.221 24.7138 26.0699 25.2943 27.0769 26.1203ZM29.9858 19.8691H32.8948V22.7714H36.5872V25.4504H32.8948V29.4689C32.9172 31.2103 35.2669 31.2103 36.5872 30.8084V33.3758C33.6557 34.626 30.0081 33.6214 29.9858 29.6921V19.8691ZM41.9582 18.8646H38.8254V21.432H41.9582V18.8646ZM41.9582 22.7715H38.8254V33.7108H41.9582V22.7715ZM44.5312 19.8691H47.4403V22.7714H51.1326V25.4504H47.4403V29.4689C47.4627 31.2103 49.8124 31.2103 51.1326 30.8084V33.3758C48.2012 34.626 44.5536 33.6214 44.5312 29.6921V19.8691ZM56.3911 22.7717H53.2583V29.6925C53.303 34.8719 59.345 34.1799 60.7995 32.7064C60.9338 32.5501 61.0457 32.5055 61.2023 32.4832C61.4037 32.5055 61.5156 33.019 61.538 33.711H63.9995V22.7717H61.0904V28.7995C61.0904 31.2553 56.3911 31.6571 56.3911 29.6925V22.7717ZM66.3493 19.8691H69.2584V22.7714H72.9507V25.4504H69.2584V29.4689C69.2807 31.2103 71.6304 31.2103 72.9507 30.8084V33.3758C70.0192 34.626 66.3716 33.6214 66.3493 29.6921V19.8691ZM84.1398 32.818V30.3623C81.8797 31.2999 78.165 31.5678 77.6503 29.0228H85.0349C85.0573 20.383 74.4055 20.7848 74.4055 28.1298C74.4055 33.6887 80.6489 34.9612 84.1398 32.818ZM77.6503 27.1251H81.902C81.2755 24.848 78.344 24.9596 77.6503 27.1251Z" fill="black"/>
</svg>
